# xmcd
#
# Track frame offsets: 
#        150
#        20630
#        36859
#        52636
#        65559
#        81690
#        97891
#        112836
#        128993
#        144584
#        157610
#        174993
#
# Disc length: 2559 seconds
#
# Revision: 6
# Processed by: cddbd v1.5.2PL0 Copyright (c) Steve Scherf et al.
# Submitted via: ExactAudioCopyFreeDBPlugin 1.0
#
DISCID=9209fd0c
DTITLE=Linda Ronstadt - 1989 - Cry Like A Rainstorm [Howl Like The Win
DTITLE=d]
DYEAR=1989
DGENRE=Country
TTITLE0=Still Within The Sound Of My Voice
TTITLE1=Cry Like A Rainstorm
TTITLE2=All My Life
TTITLE3=I Need You
TTITLE4=Don`t Know Much
TTITLE5=Adios
TTITLE6=Trouble Again
TTITLE7=I Keep It Hid
TTITLE8=So Right, So wrong
TTITLE9=Shattered
TTITLE10=When Something Is Wrong With My Baby
TTITLE11=Goodbye My Friend
EXTD=
EXTT0=
EXTT1=
EXTT2=
EXTT3=
EXTT4=
EXTT5=
EXTT6=
EXTT7=
EXTT8=
EXTT9=
EXTT10=
EXTT11=
PLAYORDER=
